HIERARCHY
ROOT Hips
{
	OFFSET 0.000000 0.000000 0.000000
	CHANNELS 6 Xposition Yposition Zposition Xrotation Yrotation Zrotation
	JOINT LeftUpLeg_virtual
	{
		OFFSET 0.000000 0.000000 0.000000
		CHANNELS 3 Xrotation Yrotation Zrotation
		JOINT LeftUpLeg
		{
			OFFSET 10.205400 -3.823500 0.155100
			CHANNELS 3 Xrotation Yrotation Zrotation
			JOINT LeftLeg
			{
				OFFSET 0.708757 -12.982077 0.567790
				CHANNELS 3 Xrotation Yrotation Zrotation
				JOINT LeftFoot
				{
					OFFSET -0.708756 -10.717838 -2.184338
					CHANNELS 3 Xrotation Yrotation Zrotation
					JOINT LeftToeBase
					{
						OFFSET 0.108149 -7.191104 7.560241
						CHANNELS 3 Xrotation Yrotation Zrotation
						JOINT LeftToe_End
						{
							OFFSET 0.070230 0.081724 4.490308
							CHANNELS 3 Xrotation Yrotation Zrotation
							End Site
							{
								OFFSET 0 0 0
							}
						}
					}
				}
			}
		}
	}
	JOINT RightUpLeg_virtual
	{
		OFFSET 0.000000 0.000000 0.000000
		CHANNELS 3 Xrotation Yrotation Zrotation
		JOINT RightUpLeg
		{
			OFFSET -10.205400 -3.823500 0.005500
			CHANNELS 3 Xrotation Yrotation Zrotation
			JOINT RightLeg
			{
				OFFSET -0.708756 -12.982134 0.610632
				CHANNELS 3 Xrotation Yrotation Zrotation
				JOINT RightFoot
				{
					OFFSET 0.708754 -10.717769 -1.945823
					CHANNELS 3 Xrotation Yrotation Zrotation
					JOINT RightToeBase
					{
						OFFSET -0.108140 -7.191069 7.372968
						CHANNELS 3 Xrotation Yrotation Zrotation
						JOINT RightToe_End
						{
							OFFSET -0.070227 0.081735 4.479403
							CHANNELS 3 Xrotation Yrotation Zrotation
							End Site
							{
								OFFSET 0 0 0
							}
						}
					}
				}
			}
		}
	}
	JOINT Spine_virtual
	{
		OFFSET 0.000000 0.000000 0.000000
		CHANNELS 3 Xrotation Yrotation Zrotation
		JOINT Spine
		{
			OFFSET 0.000000 6.876099 0.125700
			CHANNELS 3 Xrotation Yrotation Zrotation
			JOINT Spine1
			{
				OFFSET 0.000000 5.730043 0.104720
				CHANNELS 3 Xrotation Yrotation Zrotation
				JOINT Spine1_split
				{
					OFFSET 0.000000 5.730043 0.104720
					CHANNELS 3 Xrotation Yrotation Zrotation
					JOINT Spine2
					{
						OFFSET 0.000000 5.730043 0.104720
						CHANNELS 3 Xrotation Yrotation Zrotation
						JOINT Neck_virtual
						{
							OFFSET 0.000000 0.000000 0.000000
							CHANNELS 3 Xrotation Yrotation Zrotation
							JOINT Neck
							{
								OFFSET 0.000000 10.314075 0.188496
								CHANNELS 3 Xrotation Yrotation Zrotation
								JOINT Head
								{
									OFFSET 0.000000 7.643700 -2.377400
									CHANNELS 3 Xrotation Yrotation Zrotation
									JOINT HeadTop_End
									{
										OFFSET 0.000000 43.788605 -13.619600
										CHANNELS 3 Xrotation Yrotation Zrotation
										End Site
										{
											OFFSET 0 0 0
										}
									}
								}
							}
						}
						JOINT LeftShoulder_virtual
						{
							OFFSET 0.000000 0.000000 0.000000
							CHANNELS 3 Xrotation Yrotation Zrotation
							JOINT LeftShoulder
							{
								OFFSET 2.196100 4.412489 0.087492
								CHANNELS 3 Xrotation Yrotation Zrotation
								JOINT LeftShoulder_split
								{
									OFFSET 2.196100 4.412489 0.087492
									CHANNELS 3 Xrotation Yrotation Zrotation
									JOINT LeftArm
									{
										OFFSET 8.771219 -2.981674 -0.026999
										CHANNELS 3 Xrotation Yrotation Zrotation
										JOINT LeftForeArm
										{
											OFFSET 8.512804 0.000000 -0.000000
											CHANNELS 3 Xrotation Yrotation Zrotation
											JOINT LeftHand
											{
												OFFSET 18.484802 0.000000 -0.000000
												CHANNELS 3 Xrotation Yrotation Zrotation
												End Site
												{
													OFFSET 0 0 0
												}
											}
										}
									}
								}
							}
						}
						JOINT RightShoulder_virtual
						{
							OFFSET 0.000000 0.000000 0.000000
							CHANNELS 3 Xrotation Yrotation Zrotation
							JOINT RightShoulder
							{
								OFFSET -2.196100 4.412496 0.070690
								CHANNELS 3 Xrotation Yrotation Zrotation
								JOINT RightShoulder_split
								{
									OFFSET -2.196100 4.412496 0.070690
									CHANNELS 3 Xrotation Yrotation Zrotation
									JOINT RightArm
									{
										OFFSET -8.771282 -2.981682 -0.094208
										CHANNELS 3 Xrotation Yrotation Zrotation
										JOINT RightForeArm
										{
											OFFSET -8.494598 0.000000 0.000000
											CHANNELS 3 Xrotation Yrotation Zrotation
											JOINT RightHand
											{
												OFFSET -18.483803 0.000000 0.000001
												CHANNELS 3 Xrotation Yrotation Zrotation
												End Site
												{
													OFFSET 0 0 0
												}
											}
										}
									}
								}
							}
						}
					}
				}
			}
		}
	}
}
MOTION
Frames: 10
Frame Time: 0.03333333
3.521007 34.083736 -1.888652 0.000000 0.000000 0.000000 -0.531768 -18.567623 -2.030129 -6.961512 6.485204 -0.601149 25.792104 8.409616 1.717270 -19.826135 20.380113 -0.517649 -10.703453 0.000024 0.000007 0.000000 0.000000 0.000000 -0.531768 -18.567623 -2.030129 -14.574247 -6.783482 -13.712151 20.213962 3.615579 3.994696 -16.497613 -4.224776 6.701700 -8.437772 0.000049 0.000003 0.000000 0.000000 0.000000 -0.531768 -18.567623 -2.030129 4.477259 1.708798 -2.316140 0.263398 0.569443 -0.234719 0.000000 0.000000 0.000000 0.000000 0.000000 0.000000 0.259934 0.575306 -0.235202 -0.614421 0.259443 3.053837 11.190384 11.650973 10.196007 0.000000 0.000000 0.000000 0.259934 0.575306 -0.235202 2.655927 -4.173625 -12.024679 0.000000 0.000000 0.000000 -11.354758 -17.200412 -60.369194 -0.000005 -14.732026 0.000005 0.000000 0.000000 0.000000 0.259934 0.575306 -0.235202 2.178419 0.469364 15.702945 0.000000 0.000000 0.000000 6.014232 -0.860581 63.957762 0.000006 14.800960 -0.000014 0.000000 0.000000 0.000000 
3.707240 34.087307 -1.806070 0.000000 0.000000 0.000000 -0.402060 -19.232833 -2.255949 -6.893473 6.449278 -0.888762 25.861646 8.434802 1.762686 -20.131040 21.029580 -0.122584 -10.633063 0.000021 0.000003 0.000000 0.000000 0.000000 -0.402060 -19.232833 -2.255949 -14.684729 -6.710094 -13.561096 19.682169 3.892749 3.966141 -16.488309 -4.159806 6.322418 -8.406650 0.000070 0.000004 0.000000 0.000000 0.000000 -0.402060 -19.232833 -2.255949 4.348172 1.259172 -2.427557 0.212744 0.451143 -0.248039 0.000000 0.000000 0.000000 0.000000 0.000000 0.000000 0.209998 0.457542 -0.249457 -0.676048 0.363728 3.241259 11.273839 13.135221 10.728870 0.000000 0.000000 0.000000 0.209998 0.457542 -0.249457 2.666470 -4.458589 -11.991961 0.000000 0.000000 0.000000 -11.925388 -18.438333 -60.942629 0.000007 -15.296910 0.000015 0.000000 0.000000 0.000000 0.209998 0.457542 -0.249457 2.229757 0.129002 15.927629 0.000000 0.000000 0.000000 5.674423 -0.408637 64.436954 -0.000001 15.408104 0.000014 0.000000 0.000000 0.000000 
3.871593 34.092712 -1.729258 0.000000 0.000000 0.000000 -0.222263 -19.818159 -2.443004 -6.891809 6.428964 -1.106013 25.871192 8.447906 1.767094 -20.315288 21.585136 0.227291 -10.562625 0.000016 0.000003 0.000000 0.000000 0.000000 -0.222263 -19.818159 -2.443004 -14.749099 -6.658874 -13.453235 19.165040 3.976190 3.903102 -16.535857 -4.155698 6.167862 -8.375534 0.000059 0.000007 0.000000 0.000000 0.000000 -0.222263 -19.818159 -2.443004 4.210646 0.732701 -2.603952 0.165082 0.312359 -0.289361 0.000000 0.000000 0.000000 0.000000 0.000000 0.000000 0.163354 0.319515 -0.292051 -0.743325 0.449655 3.455310 11.434273 14.520115 11.315072 0.000000 0.000000 0.000000 0.163354 0.319515 -0.292051 2.633637 -4.716147 -11.762431 0.000000 0.000000 0.000000 -12.145313 -19.959030 -61.514637 -0.000002 -16.226668 0.000003 0.000000 0.000000 0.000000 0.163354 0.319515 -0.292051 2.301193 -0.222079 16.229590 0.000000 0.000000 0.000000 5.160316 0.078140 64.897787 0.000011 15.935560 0.000013 0.000000 0.000000 0.000000 
4.016580 34.103626 -1.653966 0.000000 0.000000 0.000000 0.089726 -20.363716 -2.564686 -7.004921 6.371218 -1.348088 25.835633 8.468072 1.828136 -20.534438 22.167177 0.559540 -10.492322 0.000012 0.000003 0.000000 0.000000 0.000000 0.089726 -20.363716 -2.564686 -14.875462 -6.606168 -13.330817 18.587501 3.967902 3.838194 -16.526146 -4.155332 6.018670 -8.344458 0.000052 0.000007 0.000000 0.000000 0.000000 0.089726 -20.363716 -2.564686 3.985000 0.182694 -2.867593 0.108365 0.169811 -0.345939 0.000000 0.000000 0.000000 0.000000 0.000000 0.000000 0.107951 0.177822 -0.350155 -0.816813 0.513492 3.692737 11.709279 15.764160 11.871392 0.000000 0.000000 0.000000 0.107951 0.177822 -0.350155 2.588612 -4.869835 -11.506950 0.000000 0.000000 0.000000 -12.196942 -21.829840 -61.937221 0.000000 -17.471487 0.000010 0.000000 0.000000 0.000000 0.107951 0.177822 -0.350155 2.389276 -0.693200 16.609494 0.000000 0.000000 0.000000 4.537145 0.660917 65.259575 -0.000005 16.375640 0.000020 0.000000 0.000000 0.000000 
4.142560 34.119850 -1.576146 0.000000 0.000000 0.000000 0.530110 -20.862200 -2.659310 -7.278208 6.308420 -1.534238 25.838691 8.487807 1.921523 -20.774058 22.707749 0.845712 -10.422315 0.000016 -0.000000 0.000000 0.000000 0.000000 0.530110 -20.862200 -2.659310 -14.999869 -6.565565 -13.138616 17.796201 3.869797 3.789241 -16.301951 -4.145390 5.856789 -8.313537 0.000070 0.000016 0.000000 0.000000 0.000000 0.530110 -20.862200 -2.659310 3.666620 -0.336418 -3.197125 0.048453 0.035358 -0.422421 0.000000 0.000000 0.000000 0.000000 0.000000 0.000000 0.049645 0.044190 -0.428284 -0.885515 0.543032 3.967776 11.917263 16.797590 12.478649 0.000000 0.000000 0.000000 0.049645 0.044190 -0.428284 2.538558 -4.996353 -11.236807 0.000000 0.000000 0.000000 -12.203175 -23.916041 -62.274830 -0.000011 -18.845175 -0.000006 0.000000 0.000000 0.000000 0.049645 0.044190 -0.428284 2.503080 -1.271401 17.102652 0.000000 0.000000 0.000000 3.843678 1.244933 65.482731 -0.000008 16.670673 0.000006 0.000000 0.000000 0.000000 
4.247386 34.136711 -1.498929 0.000000 0.000000 0.000000 1.009282 -21.270966 -2.732270 -7.633045 6.222761 -1.681490 25.847721 8.506667 2.057639 -20.907409 23.213694 1.041037 -10.352735 0.000014 0.000005 0.000000 0.000000 0.000000 1.009282 -21.270966 -2.732270 -15.017788 -6.545041 -12.924859 16.917788 3.629477 3.690456 -16.111778 -4.163497 5.844903 -8.282860 0.000054 0.000006 0.000000 0.000000 0.000000 1.009282 -21.270966 -2.732270 3.342793 -0.873957 -3.592467 -0.000237 -0.102652 -0.507738 0.000000 0.000000 0.000000 0.000000 0.000000 0.000000 0.002964 -0.093055 -0.515358 -0.954680 0.553324 4.259102 11.992376 17.660549 13.084536 0.000000 0.000000 0.000000 0.002964 -0.093055 -0.515358 2.475100 -5.227720 -10.890672 0.000000 0.000000 0.000000 -12.060449 -25.828968 -62.657109 -0.000017 -20.450449 -0.000002 0.000000 0.000000 0.000000 0.002964 -0.093055 -0.515358 2.613141 -1.829996 17.585838 0.000000 0.000000 0.000000 3.121777 1.709674 65.690813 0.000010 16.890754 -0.000003 0.000000 0.000000 0.000000 
4.325663 34.152763 -1.423814 0.000000 0.000000 0.000000 1.538079 -21.549547 -2.745736 -8.079409 6.094475 -1.810909 25.802959 8.519443 2.232771 -20.825692 23.673574 1.123008 -10.283755 0.000014 0.000005 0.000000 0.000000 0.000000 1.538079 -21.549547 -2.745736 -14.980394 -6.538191 -12.744583 16.035718 3.250991 3.530356 -15.967416 -4.219426 6.018685 -8.252513 0.000054 -0.000002 0.000000 0.000000 0.000000 1.538079 -21.549547 -2.745736 3.026485 -1.518826 -4.109743 -0.035742 -0.264688 -0.599083 0.000000 0.000000 0.000000 0.000000 0.000000 0.000000 -0.029855 -0.254273 -0.608749 -1.042933 0.555261 4.592571 11.973668 18.502858 13.658080 0.000000 0.000000 0.000000 -0.029855 -0.254273 -0.608749 2.395733 -5.560265 -10.447337 0.000000 0.000000 0.000000 -11.802110 -27.261587 -63.129082 0.000006 -22.245001 -0.000000 0.000000 0.000000 0.000000 -0.029855 -0.254273 -0.608749 2.706378 -2.318895 18.001848 0.000000 0.000000 0.000000 2.543635 2.271840 65.871867 0.000000 17.206961 -0.000007 0.000000 0.000000 0.000000 
4.382914 34.168694 -1.354904 0.000000 0.000000 0.000000 2.098947 -21.684611 -2.746928 -8.649690 5.992356 -1.823193 25.816206 8.519679 2.358495 -20.629108 23.952514 1.127744 -10.215539 0.000029 0.000004 0.000000 0.000000 0.000000 2.098947 -21.684611 -2.746928 -14.881941 -6.570192 -12.553397 15.008495 2.817344 3.381579 -15.624247 -4.277868 6.230154 -8.222540 0.000054 0.000004 0.000000 0.000000 0.000000 2.098947 -21.684611 -2.746928 2.757194 -2.244071 -4.727346 -0.062149 -0.444099 -0.699511 0.000000 0.000000 0.000000 0.000000 0.000000 0.000000 -0.052830 -0.432645 -0.711437 -1.139583 0.537989 4.963324 11.984618 19.239320 14.330603 0.000000 0.000000 0.000000 -0.052830 -0.432645 -0.711437 2.312856 -5.946094 -9.923314 0.000000 0.000000 0.000000 -11.459947 -28.388563 -63.583085 0.000001 -23.957414 -0.000015 0.000000 0.000000 0.000000 -0.052830 -0.432645 -0.711437 2.792781 -2.708296 18.383464 0.000000 0.000000 0.000000 2.162703 2.907652 65.964512 0.000002 17.596041 -0.000016 0.000000 0.000000 0.000000 
4.431491 34.182919 -1.298452 0.000000 0.000000 0.000000 2.599821 -21.760450 -2.806772 -9.273638 5.900183 -1.777837 26.050113 8.528476 2.517187 -20.629109 24.153649 1.112316 -10.145984 0.000015 0.000005 0.000000 0.000000 0.000000 2.599821 -21.760450 -2.806772 -14.704458 -6.595362 -12.262055 13.981139 2.400214 3.228580 -15.322131 -4.324165 6.352154 -8.191879 0.000054 0.000004 0.000000 0.000000 0.000000 2.599821 -21.760450 -2.806772 2.622334 -2.871653 -5.363339 -0.079052 -0.592437 -0.796186 0.000000 0.000000 0.000000 0.000000 0.000000 0.000000 -0.066385 -0.579563 -0.810113 -1.209053 0.508124 5.294197 11.933850 19.733364 15.143872 0.000000 0.000000 0.000000 -0.066385 -0.579563 -0.810113 2.237993 -6.352280 -9.452220 0.000000 0.000000 0.000000 -11.078410 -29.367785 -63.864646 -0.000014 -25.495812 -0.000014 0.000000 0.000000 0.000000 -0.066385 -0.579563 -0.810113 2.864969 -3.026336 18.704564 0.000000 0.000000 0.000000 1.965946 3.449119 66.018723 -0.000015 18.025446 0.000027 0.000000 0.000000 0.000000 
4.474981 34.196594 -1.248544 0.000000 0.000000 0.000000 3.054325 -21.863413 -2.936769 -9.933261 5.809211 -1.699318 26.514103 8.551466 2.745879 -20.902401 24.368660 1.089977 -10.073123 0.000022 0.000003 0.000000 0.000000 0.000000 3.054325 -21.863413 -2.936769 -14.470026 -6.571268 -11.819103 13.090423 1.915769 3.015613 -15.316185 -4.367249 6.342874 -8.159466 0.000056 0.000010 0.000000 0.000000 0.000000 3.054325 -21.863413 -2.936769 2.577006 -3.285189 -5.945754 -0.083914 -0.682050 -0.879799 0.000000 0.000000 0.000000 0.000000 0.000000 0.000000 -0.068758 -0.667782 -0.895027 -1.231806 0.480516 5.549291 11.737946 20.037012 15.997789 0.000000 0.000000 0.000000 -0.068758 -0.667782 -0.895027 2.192510 -6.699695 -9.144803 0.000000 0.000000 0.000000 -10.753840 -30.226667 -63.887793 0.000009 -26.863807 0.000034 0.000000 0.000000 0.000000 -0.068758 -0.667782 -0.895027 2.903602 -3.345723 18.896878 0.000000 0.000000 0.000000 1.889107 3.837625 66.112666 -0.000003 18.343578 -0.000021 0.000000 0.000000 0.000000 
